<?xml version="1.0" standalone="no"?>
<!DOCTYPE svg PUBLIC "-//W3C//DTD SVG 20010904//EN"
 "http://www.w3.org/TR/2001/REC-SVG-20010904/DTD/svg10.dtd">
<svg version="1.0" xmlns="http://www.w3.org/2000/svg"
 width="328.000000pt" height="40.000000pt" viewBox="0 0 328.000000 40.000000"
 preserveAspectRatio="xMidYMid meet">

<g transform="translate(0.000000,40.000000) scale(0.100000,-0.100000)"
fill="#000000" stroke="none">
<path d="M1030 205 c0 -96 3 -115 15 -115 11 0 15 12 15 49 0 31 5 53 15 61
26 21 45 -5 45 -61 0 -37 4 -49 15 -49 11 0 15 13 15 53 0 69 -16 92 -58 84
l-32 -7 0 50 c0 38 -4 50 -15 50 -12 0 -15 -19 -15 -115z"/>
<path d="M2080 205 c0 -96 3 -115 15 -115 11 0 15 11 15 43 0 50 19 83 44 74
12 -5 16 -20 16 -62 0 -48 2 -55 20 -55 17 0 20 7 20 43 0 66 -19 92 -63 91
l-37 -1 0 48 c0 37 -4 49 -15 49 -12 0 -15 -19 -15 -115z"/>
<path d="M2960 205 c0 -96 3 -115 15 -115 12 0 15 19 15 115 0 96 -3 115 -15
115 -12 0 -15 -19 -15 -115z"/>
<path d="M3150 205 c0 -96 3 -115 15 -115 11 0 15 12 15 49 0 31 5 53 15 61
26 21 45 -5 45 -61 0 -37 4 -49 15 -49 12 0 15 13 15 59 0 68 -14 87 -60 77
l-30 -6 0 50 c0 38 -4 50 -15 50 -12 0 -15 -19 -15 -115z"/>
<path d="M390 195 c0 -98 1 -105 20 -105 17 0 19 8 22 68 l3 69 60 -68 c33
-37 63 -68 68 -68 4 -1 7 46 7 104 0 98 -1 105 -20 105 -18 0 -20 -7 -20 -67
l-1 -68 -62 68 c-34 37 -65 67 -69 67 -5 0 -8 -47 -8 -105z"/>
<path d="M1700 195 l0 -105 60 0 c47 0 60 3 60 15 0 11 -12 15 -45 15 l-45 0
0 90 c0 73 -3 90 -15 90 -12 0 -15 -18 -15 -105z"/>
<path d="M2430 195 c0 -98 1 -105 20 -105 17 0 20 7 20 50 l0 50 50 0 50 0 0
-50 c0 -43 3 -50 20 -50 19 0 20 7 20 105 0 98 -1 105 -20 105 -17 0 -20 -7
-20 -40 l0 -40 -50 0 -50 0 0 40 c0 33 -3 40 -20 40 -19 0 -20 -7 -20 -105z"/>
<path d="M1850 275 c0 -8 7 -15 15 -15 8 0 15 7 15 15 0 8 -7 15 -15 15 -8 0
-15 -7 -15 -15z"/>
<path d="M920 250 c0 -11 -4 -20 -10 -20 -5 0 -10 -7 -10 -15 0 -8 5 -15 10
-15 6 0 10 -19 10 -43 0 -48 13 -67 47 -67 28 0 30 11 3 28 -14 8 -20 23 -20
47 0 28 4 35 20 35 11 0 20 7 20 15 0 8 -9 15 -20 15 -13 0 -20 7 -20 20 0 11
-7 20 -15 20 -8 0 -15 -9 -15 -20z"/>
<path d="M2250 250 c0 -11 -4 -20 -10 -20 -5 0 -10 -7 -10 -15 0 -8 5 -15 10
-15 6 0 10 -16 10 -36 0 -48 16 -74 45 -74 30 0 31 4 5 30 -11 11 -20 33 -20
50 0 23 4 30 20 30 11 0 20 7 20 15 0 8 -9 15 -20 15 -13 0 -20 7 -20 20 0 11
-7 20 -15 20 -8 0 -15 -9 -15 -20z"/>
<path d="M3040 250 c0 -11 -4 -20 -10 -20 -5 0 -10 -7 -10 -15 0 -8 5 -15 10
-15 6 0 10 -16 10 -36 0 -48 16 -74 45 -74 30 0 32 11 5 28 -14 8 -20 23 -20
47 0 28 4 35 20 35 11 0 20 7 20 15 0 8 -9 15 -20 15 -13 0 -20 7 -20 20 0 11
-7 20 -15 20 -8 0 -15 -9 -15 -20z"/>
<path d="M32 223 c-19 -7 -4 -23 23 -23 29 0 41 16 19 24 -18 7 -23 7 -42 -1z"/>
<path d="M130 220 c-12 -7 -10 -11 10 -18 31 -12 72 4 49 19 -18 11 -40 11
-59 -1z"/>
<path d="M247 224 c-15 -15 -6 -24 24 -24 20 0 29 4 27 13 -5 14 -40 21 -51
11z"/>
<path d="M621 204 c-26 -34 -26 -54 0 -88 40 -51 129 -20 129 45 0 65 -89 94
-129 43z m97 -38 c9 -42 -58 -64 -78 -26 -12 22 0 55 22 63 18 6 52 -17 56
-37z"/>
<path d="M790 160 c0 -56 3 -70 15 -70 11 0 15 11 15 39 0 52 8 71 31 71 10 0
19 7 19 15 0 18 -36 20 -43 3 -4 -10 -6 -10 -6 0 -1 6 -8 12 -16 12 -12 0 -15
-14 -15 -70z"/>
<path d="M1206 208 c-24 -33 -20 -84 6 -102 28 -20 88 -21 88 -2 0 8 -8 12
-23 9 -23 -5 -57 18 -57 38 0 5 23 9 50 9 56 0 65 15 30 50 -27 27 -75 26 -94
-2z m72 -15 c2 -9 -7 -13 -28 -13 -28 0 -31 2 -20 15 15 18 41 16 48 -2z"/>
<path d="M1350 160 c0 -63 2 -70 19 -70 17 0 20 8 23 53 3 45 6 52 26 55 12 2
22 10 22 18 0 17 -31 19 -48 2 -9 -9 -12 -9 -12 0 0 7 -7 12 -15 12 -12 0 -15
-14 -15 -70z"/>
<path d="M1460 159 c0 -62 2 -69 20 -69 18 0 20 7 20 54 0 42 4 55 17 60 25
10 43 -20 43 -71 0 -32 4 -43 15 -43 11 0 15 12 15 51 0 77 -10 88 -75 88
l-55 -1 0 -69z"/>
<path d="M1850 160 c0 -56 3 -70 15 -70 12 0 15 14 15 70 0 56 -3 70 -15 70
-12 0 -15 -14 -15 -70z"/>
<path d="M1934 209 c-15 -17 -16 -25 -7 -50 8 -19 8 -29 1 -29 -6 0 -8 -11 -6
-25 3 -14 1 -28 -3 -31 -31 -19 10 -64 57 -64 49 0 74 16 74 46 0 27 -30 44
-76 44 -35 0 -26 23 9 24 36 2 59 27 62 68 3 34 3 34 -45 36 -36 1 -51 -3 -66
-19z m71 -29 c0 -16 -6 -26 -19 -28 -24 -5 -37 17 -25 41 14 26 44 17 44 -13z
m10 -130 c0 -18 -52 -27 -67 -12 -17 17 2 33 35 30 20 -2 32 -8 32 -18z"/>
<path d="M2661 204 c-12 -15 -21 -34 -21 -44 0 -10 9 -29 21 -44 16 -20 29
-26 60 -26 27 0 39 4 39 14 0 9 -7 12 -19 9 -24 -6 -61 13 -61 32 0 11 13 15
50 15 43 0 49 2 43 18 -20 57 -77 70 -112 26z m77 -11 c2 -9 -7 -13 -27 -13
-30 0 -39 9 -24 24 11 10 46 3 51 -11z"/>
<path d="M2810 216 c0 -9 7 -12 20 -9 22 6 50 -12 50 -31 0 -8 -11 -11 -28 -8
-33 4 -55 -17 -50 -50 3 -21 9 -23 61 -25 49 -2 58 1 53 13 -3 9 -6 33 -6 54
0 22 -7 45 -16 54 -20 20 -84 22 -84 2z m68 -83 c5 -17 -26 -29 -40 -15 -6 6
-7 15 -3 22 9 14 37 9 43 -7z"/>
<path d="M68 178 c-36 -12 -35 -23 0 -37 22 -9 35 -9 55 0 15 7 27 15 27 19 0
6 -47 32 -53 29 -1 0 -14 -5 -29 -11z"/>
<path d="M203 180 c-30 -12 -29 -28 2 -40 25 -9 75 4 75 20 0 6 -46 31 -53 29
-1 0 -12 -4 -24 -9z"/>
<path d="M127 119 c-14 -8 -16 -14 -6 -25 14 -17 52 -18 80 -3 20 10 20 11 2
24 -22 17 -51 18 -76 4z"/>
</g>
</svg>
